<svg width="1646" height="2149" viewBox="0 0 1646 2149" fill="none" xmlns="http://www.w3.org/2000/svg">
<rect width="1646" height="2149" fill="#1D373F"/>
<path d="M423.962 1803C423.108 1801.29 422.414 1798.25 421.88 1793.87C414.993 1801.02 406.772 1804.6 397.216 1804.6C388.674 1804.6 381.654 1802.2 376.155 1797.39C370.71 1792.54 367.987 1786.4 367.987 1778.98C367.987 1769.95 371.404 1762.96 378.237 1758C385.124 1752.98 394.787 1750.47 407.225 1750.47H421.64V1743.66C421.64 1738.48 420.091 1734.37 416.995 1731.33C413.899 1728.23 409.334 1726.69 403.302 1726.69C398.016 1726.69 393.585 1728.02 390.009 1730.69C386.432 1733.36 384.643 1736.59 384.643 1740.38H369.749C369.749 1736.05 371.27 1731.89 374.313 1727.89C377.41 1723.83 381.574 1720.63 386.806 1718.28C392.091 1715.93 397.883 1714.75 404.182 1714.75C414.166 1714.75 421.987 1717.26 427.645 1722.28C433.304 1727.25 436.24 1734.11 436.454 1742.86V1782.74C436.454 1790.69 437.468 1797.02 439.497 1801.72V1803H423.962ZM399.378 1791.71C404.022 1791.71 408.427 1790.51 412.591 1788.11C416.755 1785.7 419.771 1782.58 421.64 1778.74V1760.96H410.028C391.877 1760.96 382.802 1766.27 382.802 1776.89C382.802 1781.54 384.35 1785.17 387.446 1787.79C390.543 1790.4 394.52 1791.71 399.378 1791.71ZM455.753 1758.88C455.753 1750.39 457.408 1742.75 460.718 1735.97C464.081 1729.19 468.725 1723.96 474.651 1720.28C480.63 1716.6 487.437 1714.75 495.071 1714.75C506.869 1714.75 516.399 1718.84 523.659 1727.01C530.973 1735.17 534.63 1746.04 534.63 1759.6V1760.64C534.63 1769.07 533.002 1776.65 529.745 1783.38C526.542 1790.05 521.924 1795.26 515.891 1799C509.912 1802.73 503.026 1804.6 495.231 1804.6C483.487 1804.6 473.957 1800.52 466.643 1792.35C459.383 1784.18 455.753 1773.37 455.753 1759.92V1758.88ZM470.647 1760.64C470.647 1770.25 472.863 1777.96 477.294 1783.78C481.778 1789.6 487.757 1792.51 495.231 1792.51C502.759 1792.51 508.738 1789.57 513.169 1783.7C517.6 1777.78 519.815 1769.5 519.815 1758.88C519.815 1749.37 517.546 1741.69 513.009 1735.81C508.524 1729.89 502.545 1726.93 495.071 1726.93C487.757 1726.93 481.858 1729.84 477.374 1735.65C472.89 1741.47 470.647 1749.8 470.647 1760.64ZM587.962 1792.51C593.247 1792.51 597.865 1790.91 601.815 1787.71C605.766 1784.5 607.955 1780.5 608.382 1775.69H622.395C622.128 1780.66 620.42 1785.38 617.27 1789.87C614.121 1794.35 609.903 1797.93 604.618 1800.6C599.386 1803.27 593.834 1804.6 587.962 1804.6C576.164 1804.6 566.768 1800.68 559.774 1792.83C552.834 1784.93 549.364 1774.15 549.364 1760.48V1758C549.364 1749.56 550.912 1742.06 554.009 1735.49C557.105 1728.93 561.536 1723.83 567.302 1720.2C573.121 1716.57 579.981 1714.75 587.882 1714.75C597.598 1714.75 605.659 1717.66 612.065 1723.48C618.525 1729.3 621.968 1736.86 622.395 1746.14H608.382C607.955 1740.54 605.819 1735.95 601.975 1732.37C598.185 1728.74 593.487 1726.93 587.882 1726.93C580.354 1726.93 574.509 1729.65 570.345 1735.09C566.234 1740.49 564.179 1748.31 564.179 1758.56V1761.36C564.179 1771.34 566.234 1779.03 570.345 1784.42C574.455 1789.81 580.328 1792.51 587.962 1792.51ZM639.372 1795.23C639.372 1792.67 640.119 1790.53 641.614 1788.83C643.162 1787.12 645.458 1786.26 648.501 1786.26C651.544 1786.26 653.839 1787.12 655.388 1788.83C656.989 1790.53 657.79 1792.67 657.79 1795.23C657.79 1797.69 656.989 1799.74 655.388 1801.4C653.839 1803.05 651.544 1803.88 648.501 1803.88C645.458 1803.88 643.162 1803.05 641.614 1801.4C640.119 1799.74 639.372 1797.69 639.372 1795.23ZM759.009 1782.58L775.665 1716.36H790.479L765.255 1803H753.243L732.182 1737.34L711.682 1803H699.671L674.526 1716.36H689.261L706.317 1781.22L726.497 1716.36H738.429L759.009 1782.58ZM841.569 1804.6C829.824 1804.6 820.268 1800.76 812.901 1793.07C805.534 1785.33 801.85 1775 801.85 1762.08V1759.36C801.85 1750.76 803.479 1743.1 806.735 1736.38C810.045 1729.6 814.636 1724.31 820.509 1720.52C826.434 1716.68 832.841 1714.75 839.727 1714.75C850.992 1714.75 859.747 1718.46 865.993 1725.88C872.239 1733.31 875.362 1743.93 875.362 1757.76V1763.92H816.665C816.878 1772.46 819.361 1779.38 824.112 1784.66C828.917 1789.89 835.003 1792.51 842.37 1792.51C847.602 1792.51 852.033 1791.44 855.663 1789.31C859.293 1787.17 862.47 1784.34 865.192 1780.82L874.241 1787.87C866.981 1799.02 856.09 1804.6 841.569 1804.6ZM839.727 1726.93C833.748 1726.93 828.73 1729.11 824.673 1733.49C820.615 1737.82 818.106 1743.9 817.145 1751.75H860.548V1750.63C860.121 1743.1 858.092 1737.28 854.462 1733.17C850.832 1729.01 845.92 1726.93 839.727 1726.93ZM965.931 1760.64C965.931 1773.88 962.888 1784.53 956.802 1792.59C950.716 1800.6 942.548 1804.6 932.298 1804.6C921.354 1804.6 912.892 1800.73 906.913 1792.99L906.192 1803H892.579V1680H907.393V1725.88C913.373 1718.46 921.621 1714.75 932.138 1714.75C942.655 1714.75 950.903 1718.73 956.882 1726.69C962.914 1734.64 965.931 1745.53 965.931 1759.36V1760.64ZM951.116 1758.96C951.116 1748.87 949.168 1741.07 945.27 1735.57C941.373 1730.08 935.768 1727.33 928.454 1727.33C918.684 1727.33 911.664 1731.86 907.393 1740.94V1778.42C911.931 1787.49 919.005 1792.03 928.614 1792.03C935.714 1792.03 941.24 1789.28 945.19 1783.78C949.141 1778.28 951.116 1770.01 951.116 1758.96ZM1035.12 1780.02C1035.12 1776.01 1033.6 1772.92 1030.55 1770.73C1027.56 1768.49 1022.31 1766.56 1014.78 1764.96C1007.3 1763.36 1001.35 1761.44 996.921 1759.2C992.543 1756.96 989.287 1754.29 987.151 1751.19C985.069 1748.09 984.028 1744.41 984.028 1740.14C984.028 1733.04 987.018 1727.03 992.997 1722.12C999.03 1717.21 1006.72 1714.75 1016.06 1714.75C1025.88 1714.75 1033.84 1717.29 1039.92 1722.36C1046.06 1727.43 1049.13 1733.92 1049.13 1741.82H1034.24C1034.24 1737.76 1032.5 1734.27 1029.03 1731.33C1025.62 1728.39 1021.29 1726.93 1016.06 1726.93C1010.67 1726.93 1006.45 1728.1 1003.41 1730.45C1000.36 1732.8 998.843 1735.87 998.843 1739.66C998.843 1743.24 1000.26 1745.93 1003.09 1747.75C1005.92 1749.56 1011.01 1751.3 1018.38 1752.95C1025.8 1754.61 1031.81 1756.58 1036.4 1758.88C1040.99 1761.17 1044.38 1763.95 1046.57 1767.21C1048.81 1770.41 1049.93 1774.33 1049.93 1778.98C1049.93 1786.72 1046.84 1792.94 1040.64 1797.63C1034.45 1802.28 1026.42 1804.6 1016.54 1804.6C1009.6 1804.6 1003.46 1803.37 998.122 1800.92C992.783 1798.46 988.593 1795.05 985.55 1790.67C982.56 1786.24 981.065 1781.46 981.065 1776.33H995.88C996.147 1781.3 998.122 1785.25 1001.81 1788.19C1005.54 1791.07 1010.45 1792.51 1016.54 1792.51C1022.15 1792.51 1026.63 1791.39 1029.99 1789.15C1033.41 1786.85 1035.12 1783.81 1035.12 1780.02ZM1085.33 1803H1070.51V1716.36H1085.33V1803ZM1069.31 1693.37C1069.31 1690.97 1070.03 1688.94 1071.47 1687.29C1072.97 1685.63 1075.16 1684.8 1078.04 1684.8C1080.92 1684.8 1083.11 1685.63 1084.61 1687.29C1086.1 1688.94 1086.85 1690.97 1086.85 1693.37C1086.85 1695.78 1086.1 1697.78 1084.61 1699.38C1083.11 1700.98 1080.92 1701.78 1078.04 1701.78C1075.16 1701.78 1072.97 1700.98 1071.47 1699.38C1070.03 1697.78 1069.31 1695.78 1069.31 1693.37ZM1129.21 1695.38V1716.36H1145.39V1727.81H1129.21V1781.54C1129.21 1785.01 1129.93 1787.62 1131.37 1789.39C1132.81 1791.1 1135.27 1791.95 1138.74 1791.95C1140.45 1791.95 1142.8 1791.63 1145.79 1790.99V1803C1141.89 1804.07 1138.1 1804.6 1134.41 1804.6C1127.8 1804.6 1122.8 1802.6 1119.44 1798.6C1116.08 1794.59 1114.4 1788.91 1114.4 1781.54V1727.81H1098.62V1716.36H1114.4V1695.38H1129.21ZM1198.72 1804.6C1186.97 1804.6 1177.42 1800.76 1170.05 1793.07C1162.68 1785.33 1159 1775 1159 1762.08V1759.36C1159 1750.76 1160.63 1743.1 1163.88 1736.38C1167.19 1729.6 1171.78 1724.31 1177.66 1720.52C1183.58 1716.68 1189.99 1714.75 1196.88 1714.75C1208.14 1714.75 1216.9 1718.46 1223.14 1725.88C1229.39 1733.31 1232.51 1743.93 1232.51 1757.76V1763.92H1173.81C1174.03 1772.46 1176.51 1779.38 1181.26 1784.66C1186.07 1789.89 1192.15 1792.51 1199.52 1792.51C1204.75 1792.51 1209.18 1791.44 1212.81 1789.31C1216.44 1787.17 1219.62 1784.34 1222.34 1780.82L1231.39 1787.87C1224.13 1799.02 1213.24 1804.6 1198.72 1804.6ZM1196.88 1726.93C1190.9 1726.93 1185.88 1729.11 1181.82 1733.49C1177.76 1737.82 1175.25 1743.9 1174.29 1751.75H1217.7V1750.63C1217.27 1743.1 1215.24 1737.28 1211.61 1733.17C1207.98 1729.01 1203.07 1726.93 1196.88 1726.93ZM1300.18 1780.02C1300.18 1776.01 1298.66 1772.92 1295.61 1770.73C1292.62 1768.49 1287.36 1766.56 1279.84 1764.96C1272.36 1763.36 1266.41 1761.44 1261.98 1759.2C1257.6 1756.96 1254.35 1754.29 1252.21 1751.19C1250.13 1748.09 1249.09 1744.41 1249.09 1740.14C1249.09 1733.04 1252.08 1727.03 1258.06 1722.12C1264.09 1717.21 1271.78 1714.75 1281.12 1714.75C1290.94 1714.75 1298.9 1717.29 1304.98 1722.36C1311.12 1727.43 1314.19 1733.92 1314.19 1741.82H1299.3C1299.3 1737.76 1297.56 1734.27 1294.09 1731.33C1290.67 1728.39 1286.35 1726.93 1281.12 1726.93C1275.73 1726.93 1271.51 1728.1 1268.47 1730.45C1265.42 1732.8 1263.9 1735.87 1263.9 1739.66C1263.9 1743.24 1265.32 1745.93 1268.15 1747.75C1270.97 1749.56 1276.07 1751.3 1283.44 1752.95C1290.86 1754.61 1296.87 1756.58 1301.46 1758.88C1306.05 1761.17 1309.44 1763.95 1311.63 1767.21C1313.87 1770.41 1314.99 1774.33 1314.99 1778.98C1314.99 1786.72 1311.89 1792.94 1305.7 1797.63C1299.51 1802.28 1291.47 1804.6 1281.6 1804.6C1274.66 1804.6 1268.52 1803.37 1263.18 1800.92C1257.84 1798.46 1253.65 1795.05 1250.61 1790.67C1247.62 1786.24 1246.12 1781.46 1246.12 1776.33H1260.94C1261.21 1781.3 1263.18 1785.25 1266.86 1788.19C1270.6 1791.07 1275.51 1792.51 1281.6 1792.51C1287.2 1792.51 1291.69 1791.39 1295.05 1789.15C1298.47 1786.85 1300.18 1783.81 1300.18 1780.02Z" fill="#F0C368"/>
<path d="M564.427 1258.96L524.041 1181.76L495.449 1104.56H471.146H450.775L410.032 1076.33V917.644L385.729 869.038L410.032 836.515H450.775V568.467L471.146 596.701L524.041 625.293L581.225 663.892L629.473 700.704L645.914 738.945L694.52 755.386L740.981 777.544H966.857L1121.25 722.505L1161.64 679.26V795.772V869.038L1194.16 836.515L1218.46 869.038V917.644L1194.16 990.91V1051.67V1104.56L1161.64 1124.93L1121.25 1104.56L1096.59 1181.76L1021.18 1346.88L966.857 1413L905.742 1482.33L832.833 1495.91L763.497 1482.33L694.52 1437.66L629.473 1364.75L564.427 1258.96Z" stroke="#F0C368" stroke-width="11"/>
<path d="M466.94 519.146L440.768 584.192L466.94 600.633L506.199 620.647L563.162 645.307L615.177 689.982L645.584 722.505L641.982 752.884H694.877L725.256 766.465L768.693 779.331H864.916H952.67H1013.87L1070.83 746.808L1167.05 722.505L1206.31 689.982V645.307L1219.4 600.633L1241.34 563.821V519.146L1206.31 474.471L1132.03 393.342L1070.83 352.599L1013.87 312.213L952.67 287.553L908.793 263.25H864.916L768.693 287.553H699.028L650.532 312.213L593.954 352.599L541.224 393.342L493.113 438.017L466.94 474.471V519.146Z" fill="#F0C368" stroke="#F0C368" stroke-width="7"/>
<path d="M811.39 557.03H884.299L907.172 607.423L952.919 662.105M930.046 474.829L952.919 506.637H1003.31L1044.41 557.03M600.883 506.637L637.695 557.03V607.423L705.958 662.105" stroke="#1D373F" stroke-width="4"/>
<path d="M577.293 844.378L618.036 820.075H662.711L719.537 844.378" stroke="#F0C368" stroke-width="23"/>
<path d="M902.525 844.378L943.269 820.075H987.943L1044.77 844.378" stroke="#F0C368" stroke-width="23"/>
<path d="M596.951 884.406L565.857 904.778L606.601 925.149H643.055H689.159L731.332 904.778L698.452 884.406L643.055 872.969L596.951 884.406Z" stroke="#F0C368" stroke-width="5"/>
<path d="M922.181 884.406L891.088 904.778L931.831 925.149H968.286H1014.39L1056.56 904.778L1023.68 884.406L968.286 872.969L922.181 884.406Z" stroke="#F0C368" stroke-width="5"/>
<ellipse cx="974.213" cy="900.308" rx="32.3746" ry="27.3386" fill="#F0C368"/>
<ellipse cx="648.982" cy="900.308" rx="32.3746" ry="27.3386" fill="#F0C368"/>
<ellipse cx="966.298" cy="906.064" rx="15.8276" ry="14.3887" fill="#1D373F"/>
<ellipse cx="653.218" cy="906.064" rx="15.8276" ry="14.3887" fill="#1D373F"/>
<path d="M787.444 844.378L763.141 889.767L710.246 1100.99L735.264 1090.98L756.35 1088.48L774.22 1095.27L793.877 1120.29L811.747 1126.36L834.62 1120.29L849.988 1095.27L868.573 1088.48L881.082 1090.98L913.248 1100.99L895.378 1014.86L874.291 931.583L849.988 868.681L829.259 844.378H787.444Z" stroke="#F0C368" stroke-width="11"/>
<path d="M742.129 1108.47L736.016 1101.68L731.822 1094.75L739.652 1090.08L752.978 1089.39L768.324 1094.21L778.529 1102.27L782.635 1110.68L774.893 1113.87L761.908 1114.67L751.677 1111.46L742.129 1108.47Z" fill="#F0C368"/>
<path d="M850.724 1098.33L844.233 1104.5L845.431 1108.99L848.401 1110.41L854.134 1111.1L863.803 1108.52L872.435 1106.22L879.687 1104.28L884.452 1098.57L886.362 1093.25L882.148 1089.94L875.633 1089.09L868.381 1091.02L859.748 1093.33L850.724 1098.33Z" fill="#F0C368"/>
<path d="M750.64 1236.9L750.639 1236.9L759.21 1248.73L779.228 1261.03L814.607 1261.03L845.343 1261.03L860.701 1253.26L873.218 1246.32L879.997 1241.45L885.369 1234.91L860.701 1234.91L831.042 1235.45L803.884 1235.94L779.228 1236.38L750.64 1236.9Z" fill="#F0C368"/>
<line x1="819.395" y1="1236.09" x2="819.395" y2="1258.24" stroke="black" stroke-opacity="0.1"/>
<path d="M759.208 1229.65H732.403L706.671 1236.44L689.873 1246.09H663.068L675.22 1229.65L697.736 1219.29L713.461 1213.93L732.403 1207.14L759.208 1201.06L796.02 1194.63H818.536H839.265H863.568L896.449 1201.06L916.82 1207.14L943.625 1219.29L965.784 1246.09H933.975L916.82 1236.44L896.449 1229.65H863.568H839.265L818.536 1219.29L796.02 1229.65H759.208Z" stroke="#F0C368" stroke-width="7"/>
<path d="M757.064 1262.53H730.259L704.526 1255.74L687.729 1246.09H660.924L673.075 1262.53L695.591 1272.9L711.317 1278.26L730.259 1285.05L757.064 1291.12L793.876 1297.56H816.392H837.121H861.424L894.304 1291.12L914.676 1285.05L941.481 1272.9L963.639 1246.09H931.831L914.676 1255.74L894.304 1262.53H861.424H837.121H816.392H793.876H757.064Z" stroke="#F0C368" stroke-width="7"/>
</svg>
