<svg viewBox="-120 -100 420 420"  fill="none" xmlns="http://www.w3.org/2000/svg">
<g id="ArtByANC_Eye1">
<ellipse id="Back_Face_Logo" cx="99.7723" cy="101.5" rx="99.7723" ry="101.5" fill="#72CFF1"/>
<path id="Eye_Part_Top" d="M19.8681 121.8L31.0979 111.002C31.0979 111.002 42.8802 100.759 49.2383 96.317C55.5964 91.8751 63.3769 86.6313 71.6979 84.2234C80.0188 81.8155 88.6512 78.6085 97.6363 78.6085C102.904 78.6085 113.048 78.7922 121.368 81.2C127.875 83.0828 136.174 87.1245 142.532 91.566C148.889 96.0074 156.399 102.057 164.991 107.547L178.813 121.8" stroke="black" stroke-width="4"/>
<path id="Eye_Part_Closed" d="M20.7319 121.8L31.0979 114.889C31.0979 114.889 42.8775 105.932 49.2383 101.5C55.599 97.0676 60.3501 93.9687 68.6745 91.566C76.9988 89.1632 80.8494 86.8149 89.8383 86.8149C95.1076 86.8149 92.4043 86.8149 101.068 86.8149C107.115 86.8149 117.913 87.2468 124.391 89.4064C130.87 91.566 128.711 90.2702 149.874 101.5L178.813 121.174" stroke="black" stroke-width="4"/>
<path id="Eye_Part_Bottom" d="M18.1404 120.704L27.5365 132.714C27.5365 132.714 38.0221 141.645 44.4493 145.355C50.8766 149.065 57.3357 152.825 65.747 154.836C74.1584 156.847 87.6711 158.945 96.754 158.945C102.078 158.945 115.592 158.744 124.003 156.732C130.58 155.16 142.319 151.277 148.745 147.567C155.172 143.858 164.388 137.539 167.851 132.714L178.813 120.072" stroke="black" stroke-width="4"/>
<path id="ANC_Logo_Title" d="M87.5485 127.379C87.8752 127.636 88.0735 127.928 88.1435 128.254C88.2135 128.581 88.2135 128.908 88.1435 129.234C88.0502 129.818 87.7819 130.343 87.3385 130.809C86.8952 131.253 86.5102 131.533 86.1835 131.649C85.7869 132.979 85.4369 134.228 85.1335 135.394C84.8302 136.561 84.6085 137.611 84.4685 138.544C84.4219 138.754 84.3869 139.011 84.3635 139.314C84.3635 139.618 84.3869 139.828 84.4335 139.944C84.4802 140.154 84.3169 140.364 83.9435 140.574C83.5702 140.784 83.0452 140.889 82.3685 140.889C82.1352 140.889 81.8435 140.854 81.4935 140.784C81.1435 140.691 80.8052 140.528 80.4785 140.294C80.1752 140.038 79.9302 139.699 79.7435 139.279C79.5569 138.836 79.5219 138.253 79.6385 137.529C79.6619 137.296 79.7435 136.946 79.8835 136.479C80.0469 135.989 80.2335 135.418 80.4435 134.764C80.6769 134.088 80.9452 133.341 81.2485 132.524C81.5519 131.708 81.8785 130.833 82.2285 129.899H81.6685C80.9452 129.923 80.1519 129.969 79.2885 130.039C78.4252 130.109 77.5269 130.203 76.5935 130.319C75.4502 131.696 74.2952 133.003 73.1285 134.239C71.9619 135.476 70.8185 136.561 69.6985 137.494C68.6019 138.428 67.5519 139.174 66.5485 139.734C65.5219 140.271 64.6002 140.539 63.7835 140.539C62.9902 140.539 62.3369 140.458 61.8235 140.294C61.3102 140.131 60.9019 139.933 60.5985 139.699C60.2952 139.466 60.0969 139.233 60.0035 138.999C59.8869 138.743 59.8402 138.533 59.8635 138.369C59.8869 138.206 59.9569 138.113 60.0735 138.089C60.1669 138.043 60.2952 138.043 60.4585 138.089C60.5985 138.113 60.7619 138.159 60.9485 138.229C61.1352 138.276 61.3452 138.299 61.5785 138.299C62.3252 138.299 63.1302 138.113 63.9935 137.739C64.8335 137.366 65.7085 136.853 66.6185 136.199C67.5285 135.523 68.4619 134.741 69.4185 133.854C70.3985 132.944 71.3785 131.964 72.3585 130.914C71.4485 131.031 70.5969 131.148 69.8035 131.264C69.0335 131.358 68.3919 131.404 67.8785 131.404C67.2019 131.404 66.6769 131.288 66.3035 131.054C65.9069 130.821 65.6152 130.553 65.4285 130.249C65.2185 129.923 65.0902 129.608 65.0435 129.304C64.9969 128.978 64.9969 128.744 65.0435 128.604C65.0902 128.231 65.1485 128.021 65.2185 127.974C65.2885 127.904 65.4402 127.904 65.6735 127.974C65.8835 128.044 66.2335 128.138 66.7235 128.254C67.2135 128.371 67.9019 128.429 68.7885 128.429C69.6285 128.406 70.6085 128.313 71.7285 128.149C72.8719 127.986 74.0735 127.799 75.3335 127.589C76.7335 125.933 78.0869 124.241 79.3935 122.514C80.7235 120.788 81.9369 119.166 83.0335 117.649C84.1535 116.109 85.1335 114.756 85.9735 113.589C86.8369 112.399 87.5135 111.513 88.0035 110.929C88.0035 110.813 88.0152 110.731 88.0385 110.684C88.1085 110.264 88.3652 110.113 88.8085 110.229C89.2752 110.346 89.7652 110.603 90.2785 110.999C90.8152 111.396 91.2819 111.863 91.6785 112.399C92.0985 112.913 92.2735 113.356 92.2035 113.729C92.1802 113.916 92.0169 114.429 91.7135 115.269C91.4335 116.109 91.0719 117.159 90.6285 118.419C90.1852 119.656 89.6952 121.056 89.1585 122.619C88.6219 124.159 88.0852 125.746 87.5485 127.379ZM83.4185 126.469C84.0019 124.859 84.5735 123.214 85.1335 121.534C85.6935 119.831 86.2069 118.174 86.6735 116.564C85.7869 117.918 84.7135 119.504 83.4535 121.324C82.1935 123.121 80.8285 124.988 79.3585 126.924C80.1052 126.808 80.8169 126.714 81.4935 126.644C82.1935 126.551 82.8352 126.493 83.4185 126.469ZM119.399 113.624C119.399 114.068 119.247 114.733 118.944 115.619C118.664 116.483 118.29 117.486 117.824 118.629C117.357 119.773 116.82 121.021 116.214 122.374C115.63 123.728 115.024 125.104 114.394 126.504C113.787 127.904 113.18 129.293 112.574 130.669C111.967 132.023 111.43 133.294 110.964 134.484C110.52 135.674 110.159 136.736 109.879 137.669C109.599 138.579 109.459 139.291 109.459 139.804C109.575 140.014 109.447 140.248 109.074 140.504C108.7 140.761 108.175 140.889 107.499 140.889C107.265 140.889 106.95 140.843 106.554 140.749C106.18 140.656 105.795 140.493 105.399 140.259C105.025 140.003 104.675 139.653 104.349 139.209C104.022 138.766 103.812 138.194 103.719 137.494C103.672 137.168 103.66 136.619 103.684 135.849C103.707 135.079 103.742 134.158 103.789 133.084C103.859 131.988 103.929 130.786 103.999 129.479C104.092 128.149 104.162 126.773 104.209 125.349C104.279 123.903 104.325 122.433 104.349 120.939C104.395 119.423 104.407 117.953 104.384 116.529C103.94 117.789 103.392 119.259 102.739 120.939C102.109 122.596 101.385 124.311 100.569 126.084C99.7521 127.858 98.8771 129.608 97.9438 131.334C97.0105 133.038 96.0305 134.566 95.0038 135.919C93.9771 137.273 92.9271 138.369 91.8538 139.209C90.8038 140.026 89.7421 140.434 88.6688 140.434C87.8755 140.434 87.1988 140.353 86.6388 140.189C86.0555 140.026 85.5888 139.828 85.2388 139.594C84.8655 139.361 84.5855 139.128 84.3988 138.894C84.2121 138.638 84.1071 138.428 84.0838 138.264C84.0605 138.101 84.0955 138.008 84.1888 137.984C84.2821 137.961 84.4105 137.973 84.5738 138.019C84.7138 138.043 84.8888 138.089 85.0988 138.159C85.3088 138.206 85.5305 138.229 85.7638 138.229C86.7671 138.229 87.7705 137.903 88.7738 137.249C89.7771 136.573 90.7571 135.686 91.7138 134.589C92.6705 133.469 93.6038 132.186 94.5138 130.739C95.4238 129.269 96.2871 127.753 97.1038 126.189C97.9205 124.626 98.6905 123.051 99.4138 121.464C100.137 119.878 100.79 118.396 101.374 117.019C101.957 115.643 102.47 114.418 102.914 113.344C103.357 112.271 103.719 111.466 103.999 110.929V110.649C103.929 110.229 104.185 110.101 104.769 110.264C104.815 110.288 104.85 110.299 104.874 110.299C104.897 110.299 104.92 110.311 104.944 110.334C105.317 110.474 105.749 110.696 106.239 110.999C106.752 111.279 107.23 111.606 107.674 111.979C108.14 112.329 108.525 112.691 108.829 113.064C109.155 113.414 109.342 113.718 109.389 113.974C109.412 114.254 109.377 114.931 109.284 116.004C109.19 117.054 109.085 118.338 108.969 119.854C108.852 121.371 108.759 123.028 108.689 124.824C108.619 126.621 108.619 128.371 108.689 130.074C109.109 129.211 109.587 128.219 110.124 127.099C110.66 125.979 111.197 124.813 111.734 123.599C112.294 122.363 112.83 121.114 113.344 119.854C113.88 118.594 114.347 117.393 114.744 116.249C115.164 115.083 115.49 114.033 115.724 113.099C115.98 112.143 116.109 111.349 116.109 110.719C116.109 110.299 116.272 110.124 116.599 110.194C116.949 110.264 117.334 110.474 117.754 110.824C118.174 111.151 118.547 111.583 118.874 112.119C119.224 112.633 119.399 113.134 119.399 113.624ZM137.1 115.199C137.077 115.409 137.007 115.771 136.89 116.284C136.773 116.774 136.622 117.346 136.435 117.999C136.248 118.653 136.038 119.353 135.805 120.099C135.595 120.823 135.397 121.534 135.21 122.234C135.023 122.911 134.86 123.541 134.72 124.124C134.603 124.684 134.545 125.116 134.545 125.419C134.545 125.629 134.393 125.734 134.09 125.734C133.81 125.734 133.495 125.618 133.145 125.384C132.818 125.151 132.515 124.789 132.235 124.299C131.978 123.809 131.873 123.179 131.92 122.409C131.943 121.896 132.06 121.324 132.27 120.694C132.48 120.041 132.725 119.399 133.005 118.769C133.285 118.116 133.565 117.486 133.845 116.879C134.148 116.273 134.382 115.736 134.545 115.269C134.732 114.803 134.825 114.429 134.825 114.149C134.825 113.869 134.685 113.729 134.405 113.729C133.588 113.729 132.702 114.091 131.745 114.814C130.812 115.538 129.867 116.483 128.91 117.649C127.953 118.816 127.032 120.158 126.145 121.674C125.282 123.168 124.512 124.708 123.835 126.294C123.182 127.858 122.657 129.398 122.26 130.914C121.887 132.408 121.723 133.738 121.77 134.904C121.84 136.071 122.155 137.016 122.715 137.739C123.275 138.463 124.162 138.824 125.375 138.824C126.448 138.824 127.498 138.626 128.525 138.229C129.552 137.833 130.508 137.331 131.395 136.724C132.305 136.094 133.133 135.406 133.88 134.659C134.65 133.913 135.303 133.201 135.84 132.524C136.4 131.824 136.832 131.206 137.135 130.669C137.438 130.109 137.59 129.713 137.59 129.479C137.59 129.316 137.648 129.246 137.765 129.269C137.905 129.293 138.045 129.374 138.185 129.514C138.325 129.654 138.453 129.841 138.57 130.074C138.687 130.284 138.745 130.506 138.745 130.739C138.722 131.183 138.523 131.743 138.15 132.419C137.777 133.096 137.275 133.819 136.645 134.589C136.015 135.359 135.268 136.141 134.405 136.934C133.565 137.704 132.643 138.404 131.64 139.034C130.66 139.641 129.633 140.143 128.56 140.539C127.487 140.936 126.402 141.134 125.305 141.134C122.855 141.134 120.953 140.703 119.6 139.839C118.27 138.976 117.36 137.833 116.87 136.409C116.38 134.986 116.275 133.364 116.555 131.544C116.835 129.724 117.372 127.869 118.165 125.979C118.982 124.089 119.997 122.234 121.21 120.414C122.447 118.594 123.765 116.973 125.165 115.549C126.565 114.126 128.012 112.983 129.505 112.119C130.998 111.256 132.41 110.824 133.74 110.824C135 110.824 135.887 111.186 136.4 111.909C136.937 112.633 137.17 113.729 137.1 115.199Z" fill="black"/>
<g id="Eyelashes">
<path id="Eyelash_Parts" d="M168.348 104.956L158.945 104.188L169.129 101.71L173.412 99.1732L177.565 96.7843L181.396 92.4101L184.252 89.148L185.942 84.8643L187.438 80.8031L190.474 74.3936L191.338 79.5766L190.936 85.4383L189.049 92.0386L186.451 96.8366L182.62 101.211L176.196 104.362L168.348 104.956Z" fill="black" stroke="black"/>
<path id="Eyelash_Parts_2" d="M95.8862 73.4428L90.7021 77.201L95.4374 70.8813L97.0312 67.2076L98.5957 63.6937L99.4617 58.9773L100.108 55.46L99.8642 51.7794L99.5768 48.3386L98.5957 42.6013L101.316 45.7296L102.661 49.8966L103.416 55.2412L103.315 59.6849L102.449 64.4013L99.8642 69.5384L95.8862 73.4428Z" fill="black" stroke="black"/>
<path id="Eyelash_Parts_3" d="M122.016 79.3054L115.626 79.3673L122.342 77.0681L125.075 75.0928L127.728 73.2254L130.042 70.039L131.767 67.6627L132.643 64.6693L133.401 61.838L135.054 57.3278L135.956 60.7702L136.046 64.7484L135.181 69.3164L133.724 72.7127L131.41 75.8991L127.272 78.4207L122.016 79.3054Z" fill="black" stroke="black"/>
<path id="Eyelash_Parts_4" d="M51.8813 91.0446L47.5788 95.3638L48.3127 88.8851L48.6429 86.3613L48.3127 83.6371L48.3127 80.6787L48.3127 77.2234L48.3127 74.2L47.5788 68.5851L46.4833 64.3337L51.8813 68.5851L53.1936 71.1766L54.2578 75.9276L54.2578 79.3829L54.2578 83.6371L54.2578 86.3613L51.8813 91.0446Z" fill="black" stroke="black"/>
<path id="Eyelash_Parts_5" d="M74.5205 78.5563L70.0262 82.3827L71.4663 76.5167L72.762 73.4933L73.5414 70.7691L73.5414 67.4465L73.4507 64.4231L73.5414 61.3997L72.4318 59.1585L70.6024 51.4657L76.0004 55.3529L78.3769 58.3763L79.6726 62.6955L80.1046 66.1508L79.6726 70.7691L77.733 74.8043L74.5205 78.5563Z" fill="black" stroke="black"/>
<path id="Eyelash_Parts_6" d="M146.935 89.2766L139.94 88.8884L147.583 86.824L150.826 84.8331L153.97 82.9562L156.914 79.5951L159.109 77.0885L160.455 73.8384L161.651 70.7591L164.043 65.8857L164.583 69.76L164.166 74.1692L162.627 79.1627L160.593 82.8173L157.65 86.1784L152.798 88.6733L146.935 89.2766Z" fill="black" stroke="black"/>
</g>
</g>
</svg>
