<svg  viewBox="0 0 284 286" fill="none" xmlns="http://www.w3.org/2000/svg">
<g id="ArtByANC_Eye_Jaggedy">
<path id="Vector 70" d="M11.9987 98.5573L8.99905 101.556V98.5573L7.2573 99.9114V101.556V104.167L6.38642 103.587V107.359V113.742H7.2573V115.773L6.38642 116.934V118.868L3.77379 119.642L4.8382 125.445L3.77379 123.801V122.641L2.32234 120.996V128.734L3.09645 128.154V126.122L3.77379 127.38L4.8382 130.378V134.924H3.77379L2.32234 139.373L1.45146 145.466L0 147.594L0.774112 149.529L2.32234 168.486L3.77379 167.325L4.8382 169.84L6.38642 170.42V172.258L3.77379 171.097V172.258L5.70907 173.612V178.254L3.77379 176.707V179.028L2.32234 181.543H3.77379L4.8382 185.025L5.70907 181.543L6.38642 182.51V186.862L7.2573 190.441H6.38642L10.3537 199.146L11.902 200.983L13.7405 201.467V202.724H12.3858L13.7405 205.046L22.4492 217.426L23.4169 220.231H22.4492L25.1586 222.552L24.4813 223.519L27.9648 227.001L26.8036 226.517L28.4486 229.129L39.1894 237.06L38.3185 238.801L41.6085 244.604V245.571L59.026 256.017L62.316 260.273L76.25 270.041H77.1209L78.1853 269.364H79.8303L82.7332 270.041L83.9911 271.299H82.7332V272.363L89.0229 275.844L90.3775 273.426L94.9255 276.618L101.602 279.133L109.827 280.487L110.892 281.938H116.697V282.905L129.18 285.033L128.309 286H130.148L134.018 281.938H135.663L136.437 284.162L151.242 285.033L153.951 284.162L153.177 285.033H160.918L162.563 284.162V282.905H165.466L170.982 280.487V281.938L174.369 278.456L176.497 277.392V278.456H178.046L180.368 276.618H181.432L180.368 277.392H181.432L183.077 276.618L185.69 273.91H190.915L192.173 271.879H193.818V272.556H195.076L201.463 268.204H203.301V269.267L197.882 271.879L200.108 272.556V274.587L206.494 268.204H208.817L212.687 266.656L217.719 264.045V262.497H214.913V259.015H223.428L232.137 247.215H234.362V249.44L239.588 241.799H242.007L245.49 239.768L252.457 226.034L256.618 221.875L274.616 189.957L273.939 184.251H275.874L274.616 180.092L279.551 171.581L279.841 166.551L278.1 167.905L279.164 160.264H280.519L279.164 153.688L280.712 151.753H283.131L283.518 148.465L280.712 142.952L279.164 145.37L277.809 143.242L275.874 119.352L275.293 114.903L276.261 115.677L276.745 114.903L275.293 112.969L275.874 111.905L274.713 110.26H275.874L276.745 110.647L276.261 108.326L273.939 103.006H274.713L272.874 100.492L271.713 100.782L270.842 98.2672L272.584 95.7524H270.842V94.0115L270.359 93.4312H269.584V94.0115H269.004V91.4968L268.326 90.2394V88.8854L267.552 88.5952V88.0149H267.069V86.2739L267.359 86.0805L267.552 85.7903V85.4035H267.069L266.778 85.7903V86.7575H266.488L266.198 86.2739H265.811L266.198 85.7903L266.488 85.4035V84.6297V84.0494L266.198 83.3723H265.52V82.792L264.746 82.3084L264.262 81.6314L264.166 80.6642L264.456 80.1806L264.746 80.8576H265.327V81.3412H266.198V79.697H265.52L265.327 79.5035L264.746 79.697V79.02H264.456L264.746 78.2462H264.262L264.069 77.3757L263.682 75.3446V74.9577L263.585 74.5708L263.488 74.2807H263.101V74.0872L263.198 73.7004L263.392 73.4102L263.295 73.2168L263.682 73.12V72.8299L263.585 72.5397H263.295H263.004H262.617H262.327L262.23 72.8299H261.94H261.553L261.65 73.12L262.134 73.2168L262.521 73.4102L262.811 73.6037L262.037 73.7004L261.747 73.4102L261.359 73.5069L258.263 68.7677V68.1873H257.876V67.607H257.199V66.4464V65.9628H256.908V65.3825L256.425 65.2858L256.521 64.2218L255.844 64.1251V62.9645L255.263 62.8678L255.36 62.6743V62.1907H254.973V61.9006L254.78 61.7071V61.2235H254.489V60.7399L253.812 60.4498L253.909 60.0629L253.812 59.9662V59.5793H253.425V58.9023H253.231V58.6121H252.844L253.038 57.9351L251.877 58.1285L251.78 57.6449H251.296L251.102 57.1613H250.522V56.6777H249.941L249.651 56.0974L249.167 55.8072L249.07 55.2269H248.49L248.683 54.84L248.006 54.6466L248.2 54.2597H248.006H247.619V54.0663V53.7761H248.006L247.909 53.3892H248.2L248.49 53.486L249.07 53.2925V53.6794H249.651L249.941 53.8728H250.232L250.522 53.6794L250.038 53.486V53.0024H249.361V52.5188H248.877V52.2286L249.651 52.1319V51.9384L249.167 51.8417V51.6483H248.2L248.296 51.9384H248.006L247.619 52.1319V51.6483L247.038 51.8417L246.942 51.3581H246.748H245.974L245.877 50.7778H245.974H246.555V50.4877H247.038H247.425V50.3909V50.2942L247.329 49.9073H247.232L246.845 49.8106V49.5205V49.327H246.555L246.458 49.0369L246.168 49.2303V49.0369H245.974L245.877 48.7467H245.78L245.587 48.65V48.4565H245.2V48.1664L244.813 48.0697L244.619 47.7795H244.232V47.5861H243.942V47.2959H243.748L243.361 47.1025L243.265 46.7156L242.684 46.6189L242.878 46.4254H242.491L242.587 46.1353H242.2V45.7484L241.716 45.6517V45.2648H241.233V44.8779L240.652 44.5878V44.491L240.749 44.0865H240.071V43.5238H239.975L239.781 43.4271V43.2337L239.684 43.137L239.491 43.2337V43.4271L239.201 43.5238L239.297 44.0074L238.91 44.1042L239.007 44.6845H238.62V45.555H238.33L238.426 45.7484L238.523 46.3287H237.943V46.1353L237.846 45.9418L237.459 45.8451L237.362 45.555H236.975L236.878 45.3615V45.2648L236.781 45.0714L236.491 44.9746L236.298 44.6845H237.459V44.491V44.3943L236.878 44.491V44.2009H236.201V43.9107L238.136 43.6206L237.846 43.2337V42.9435H237.265H236.685L236.588 43.2337H236.007V42.9435H235.62V42.6534H236.007L236.104 42.3632V41.9763L235.814 41.2993L236.201 41.1059V41.4927H236.491L236.588 41.7829L236.685 41.9763H236.878V42.3632H237.265H237.846V41.9763H237.265V41.6862V41.4927H236.878V41.1059H236.685V40.9124L236.201 40.719L236.104 40.3321L236.201 40.0419L235.814 39.9452L235.62 39.7518L235.523 39.3649L235.427 39.0747V38.4944V38.1075H235.136V38.6879H234.749V39.0747H234.169L233.782 38.6879H233.298V38.1075H232.717L233.008 37.7207H232.427V37.3338V36.3666H233.008L232.717 35.4961V35.1092H232.04V34.6256H231.653L231.363 34.3355H230.976H230.395V33.8519H229.621V34.3355H229.137V33.8519H228.847V32.4011H228.556H227.976V32.1109H227.589V31.9175L227.008 31.8208V31.5306H226.428V31.3372H226.137L226.041 30.9503H225.654L225.557 30.6601H225.17L225.267 30.4667L225.073 30.37H224.686H224.396L224.686 30.0798H224.396H224.105V29.7896L223.815 29.8864L223.428 29.7896L223.234 29.8864L222.847 29.7896L222.944 30.0798V30.2732L222.847 30.9503H222.557L222.364 30.6601H222.17H221.783L221.977 30.37H221.396V30.0798H220.815V29.7896H220.428V29.5962H220.041V29.3061H219.751V29.0159H219.364V28.629H218.88V28.3389H218.396V28.0487H218.106V27.7585L217.719 27.8553V27.4684H217.138V27.2749H216.848V26.8881H216.267V26.6946H215.977V26.5012V26.3077H215.397L215.687 26.1143L215.106 25.9209L215.3 25.7274H214.816L215.01 25.534L214.526 25.4373V25.2438H214.139V24.9537H213.945V24.6635H213.558V24.3734H212.977V23.9865H212.687V23.6963H212.397V23.5029H211.913V23.2127H211.526V22.8258H211.042V22.6324H210.365V22.2455H209.881V21.9554H209.591L209.204 21.5685H209.881V21.375H209.204V21.0849H208.72V20.8914L207.849 20.7947V20.5046H206.881V20.2144H206.204V19.9242H205.333V19.6341H204.656V19.3439H204.462H203.785L204.172 19.0538H202.721V18.7636L201.559 18.5702H200.398V18.28H199.818V17.9899H199.527L199.818 17.603H199.334L199.527 17.4095V16.1522H198.269H197.108V15.5719H196.624V15.0883L196.044 15.5719V15.0883H195.366V14.7981H194.979V14.5079H194.012V13.9276H194.496H196.044L192.754 11.8965H189.948V11.4129V10.9293L189.657 10.6392V10.2523H188.883V9.76868H188.012L188.303 9.38181H187.238H186.754H186.367L187.238 10.2523L187.625 10.9293L183.755 9.38181L184.045 8.89821L185.109 7.93101L184.626 7.35069L183.464 6.57694L181.529 6.09334H174.465H172.82L171.466 5.51302L168.756 4.06222L168.273 3.57863L167.982 4.25566L169.627 5.22286L170.595 5.8999V6.57694H169.627L168.756 6.09334L167.789 5.51302L166.628 4.83598L165.563 4.06222L164.789 3.28847L163.821 2.80487L163.144 2.32127L162.37 1.93439H161.306L160.241 2.32127L159.37 2.80487L158.306 3.57863H157.145H156.371L155.984 3.28847L155.209 3.57863L155.5 4.06222V4.83598L155.209 5.51302L154.822 6.09334H153.951H152.984H152.113L151.532 5.8999L150.758 5.51302L150.371 4.83598V4.06222V3.28847H150.758H151.532H151.919L151.145 4.06222H151.532H151.919L152.5 3.28847H152.984H153.661L153.951 2.80487L153.661 2.32127H152.984V2.80487H152.5L151.532 2.32127L150.371 1.93439H148.92L148.629 1.25736L148.049 0.870477L147.081 1.25736V1.93439H141.179L140.501 1.25736H138.276L139.63 1.93439V2.80487H136.437L135.276 4.06222H133.438H132.276V2.80487H131.599H130.341H128.696V1.93439L129.76 1.25736H128.696H126.761H125.406H124.632H123.181L122.6 0.483598L121.729 0L119.794 1.25736H120.761V1.93439H119.794H119.213H118.729L119.213 3.28847L118.729 4.83598H117.955L115.052 5.51302H113.504V4.83598H114.278L115.052 4.06222L114.278 2.80487L113.504 1.93439H111.472L110.601 2.80487L108.859 5.51302H107.698L107.118 4.83598L105.182 4.06222V4.83598H106.247V5.51302L105.182 7.35069H102.57L101.022 8.60805H102.57L102.086 9.09165L101.022 9.96212L98.409 11.026H94.5384L92.8934 11.6064L91.6355 12.3801L90.8614 11.8965L89.8937 11.6064V10.4457H88.9261L88.152 11.6064H86.4102L84.5717 11.8965L82.7332 12.3801L81.572 13.6375H82.7332V14.3145L81.572 16.0555H82.1526L85.8296 13.1539L85.9264 13.6375L83.7976 16.0555H84.4749L87.5714 13.6375V14.3145V15.4751L85.3458 16.0555L82.7332 18.28H80.9914L80.5076 16.9259L79.6367 15.4751L77.1209 16.0555L74.605 18.0866L68.7992 23.0193L69.5733 22.5357V23.5029L65.3157 25.6307V24.9537H64.348H62.8966H61.6386L62.8966 25.6307L61.6386 26.5012L60.3807 28.3389L59.8001 30.1765H57.2843L55.5425 31.2404L54.5749 33.5617L51.672 38.1075L50.6076 37.0436V35.0125L49.0593 37.0436L46.2532 41.1059H45.4791V43.4271L44.2211 44.0074V45.8451L42.3826 46.5221L35.8027 53.2925L33.3836 55.7105L31.8353 56.6777L26.7069 64.8989H25.9327L25.3522 66.0595L26.7069 71.0889L22.8363 73.6037V71.0889H20.6107L17.224 77.0856H14.9984L17.224 86.0805H14.9984V90.8197L11.9987 95.559V98.5573Z" fill="#72CFF1"/>
<path id="Eye_Part_Top" d="M48.3906 165.644L60.2252 154.322C60.2252 154.322 72.6421 143.582 79.3427 138.924C86.0433 134.266 94.2429 128.768 103.012 126.243C111.781 123.718 120.878 120.356 130.347 120.356C135.898 120.356 146.589 120.548 155.357 123.073C162.214 125.047 170.961 129.285 177.661 133.942C184.361 138.599 192.276 144.943 201.33 150.699L215.896 165.644" stroke="black" stroke-width="4"/>
<path id="Eye_Part_Closed" d="M49.0107 165.644L59.954 158.291C59.954 158.291 72.3897 148.761 79.1048 144.045C85.8198 139.33 90.8354 136.032 99.6234 133.476C108.411 130.919 112.476 128.421 121.966 128.421C127.529 128.421 124.675 128.421 133.821 128.421C140.205 128.421 151.604 128.88 158.444 131.178C165.283 133.476 163.003 132.097 185.346 144.045L215.896 164.978" stroke="black" stroke-width="4"/>
<path id="Eye_Part_Bottom" d="M46.5293 164.449L56.4338 177.099C56.4338 177.099 67.4868 186.507 74.2618 190.415C81.0369 194.323 87.8455 198.283 96.712 200.401C105.579 202.52 119.822 204.729 129.397 204.729C135.009 204.729 149.254 204.517 158.12 202.399C165.053 200.742 177.427 196.652 184.202 192.745C190.976 188.837 200.691 182.182 204.341 177.099L215.896 163.783" stroke="black" stroke-width="4"/>
<path id="ANC_Logo_Title" d="M120.552 170.69C120.878 170.946 121.077 171.238 121.147 171.565C121.217 171.891 121.217 172.218 121.147 172.545C121.053 173.128 120.785 173.653 120.342 174.12C119.898 174.563 119.513 174.843 119.187 174.96C118.79 176.29 118.44 177.538 118.137 178.705C117.833 179.871 117.612 180.921 117.472 181.855C117.425 182.065 117.39 182.321 117.367 182.625C117.367 182.928 117.39 183.138 117.437 183.255C117.483 183.465 117.32 183.675 116.947 183.885C116.573 184.095 116.048 184.2 115.372 184.2C115.138 184.2 114.847 184.165 114.497 184.095C114.147 184.001 113.808 183.838 113.482 183.605C113.178 183.348 112.933 183.01 112.747 182.59C112.56 182.146 112.525 181.563 112.642 180.84C112.665 180.606 112.747 180.256 112.887 179.79C113.05 179.3 113.237 178.728 113.447 178.075C113.68 177.398 113.948 176.651 114.252 175.835C114.555 175.018 114.882 174.143 115.232 173.21H114.672C113.948 173.233 113.155 173.28 112.292 173.35C111.428 173.42 110.53 173.513 109.597 173.63C108.453 175.006 107.298 176.313 106.132 177.55C104.965 178.786 103.822 179.871 102.702 180.805C101.605 181.738 100.555 182.485 99.5516 183.045C98.5249 183.581 97.6033 183.85 96.7866 183.85C95.9933 183.85 95.3399 183.768 94.8266 183.605C94.3133 183.441 93.9049 183.243 93.6016 183.01C93.2983 182.776 93.0999 182.543 93.0066 182.31C92.8899 182.053 92.8433 181.843 92.8666 181.68C92.8899 181.516 92.9599 181.423 93.0766 181.4C93.1699 181.353 93.2983 181.353 93.4616 181.4C93.6016 181.423 93.7649 181.47 93.9516 181.54C94.1383 181.586 94.3483 181.61 94.5816 181.61C95.3283 181.61 96.1333 181.423 96.9966 181.05C97.8366 180.676 98.7116 180.163 99.6216 179.51C100.532 178.833 101.465 178.051 102.422 177.165C103.402 176.255 104.382 175.275 105.362 174.225C104.452 174.341 103.6 174.458 102.807 174.575C102.037 174.668 101.395 174.715 100.882 174.715C100.205 174.715 99.6799 174.598 99.3066 174.365C98.9099 174.131 98.6183 173.863 98.4316 173.56C98.2216 173.233 98.0933 172.918 98.0466 172.615C97.9999 172.288 97.9999 172.055 98.0466 171.915C98.0933 171.541 98.1516 171.331 98.2216 171.285C98.2916 171.215 98.4433 171.215 98.6766 171.285C98.8866 171.355 99.2366 171.448 99.7266 171.565C100.217 171.681 100.905 171.74 101.792 171.74C102.632 171.716 103.612 171.623 104.732 171.46C105.875 171.296 107.077 171.11 108.337 170.9C109.737 169.243 111.09 167.551 112.397 165.825C113.727 164.098 114.94 162.476 116.037 160.96C117.157 159.42 118.137 158.066 118.977 156.9C119.84 155.71 120.517 154.823 121.007 154.24C121.007 154.123 121.018 154.041 121.042 153.995C121.112 153.575 121.368 153.423 121.812 153.54C122.278 153.656 122.768 153.913 123.282 154.31C123.818 154.706 124.285 155.173 124.682 155.71C125.102 156.223 125.277 156.666 125.207 157.04C125.183 157.226 125.02 157.74 124.717 158.58C124.437 159.42 124.075 160.47 123.632 161.73C123.188 162.966 122.698 164.366 122.162 165.93C121.625 167.47 121.088 169.056 120.552 170.69ZM116.422 169.78C117.005 168.17 117.577 166.525 118.137 164.845C118.697 163.141 119.21 161.485 119.677 159.875C118.79 161.228 117.717 162.815 116.457 164.635C115.197 166.431 113.832 168.298 112.362 170.235C113.108 170.118 113.82 170.025 114.497 169.955C115.197 169.861 115.838 169.803 116.422 169.78ZM152.402 156.935C152.402 157.378 152.25 158.043 151.947 158.93C151.667 159.793 151.294 160.796 150.827 161.94C150.36 163.083 149.824 164.331 149.217 165.685C148.634 167.038 148.027 168.415 147.397 169.815C146.79 171.215 146.184 172.603 145.577 173.98C144.97 175.333 144.434 176.605 143.967 177.795C143.524 178.985 143.162 180.046 142.882 180.98C142.602 181.89 142.462 182.601 142.462 183.115C142.579 183.325 142.45 183.558 142.077 183.815C141.704 184.071 141.179 184.2 140.502 184.2C140.269 184.2 139.954 184.153 139.557 184.06C139.184 183.966 138.799 183.803 138.402 183.57C138.029 183.313 137.679 182.963 137.352 182.52C137.025 182.076 136.815 181.505 136.722 180.805C136.675 180.478 136.664 179.93 136.687 179.16C136.71 178.39 136.745 177.468 136.792 176.395C136.862 175.298 136.932 174.096 137.002 172.79C137.095 171.46 137.165 170.083 137.212 168.66C137.282 167.213 137.329 165.743 137.352 164.25C137.399 162.733 137.41 161.263 137.387 159.84C136.944 161.1 136.395 162.57 135.742 164.25C135.112 165.906 134.389 167.621 133.572 169.395C132.755 171.168 131.88 172.918 130.947 174.645C130.014 176.348 129.034 177.876 128.007 179.23C126.98 180.583 125.93 181.68 124.857 182.52C123.807 183.336 122.745 183.745 121.672 183.745C120.879 183.745 120.202 183.663 119.642 183.5C119.059 183.336 118.592 183.138 118.242 182.905C117.869 182.671 117.589 182.438 117.402 182.205C117.215 181.948 117.11 181.738 117.087 181.575C117.064 181.411 117.099 181.318 117.192 181.295C117.285 181.271 117.414 181.283 117.577 181.33C117.717 181.353 117.892 181.4 118.102 181.47C118.312 181.516 118.534 181.54 118.767 181.54C119.77 181.54 120.774 181.213 121.777 180.56C122.78 179.883 123.76 178.996 124.717 177.9C125.674 176.78 126.607 175.496 127.517 174.05C128.427 172.58 129.29 171.063 130.107 169.5C130.924 167.936 131.694 166.361 132.417 164.775C133.14 163.188 133.794 161.706 134.377 160.33C134.96 158.953 135.474 157.728 135.917 156.655C136.36 155.581 136.722 154.776 137.002 154.24V153.96C136.932 153.54 137.189 153.411 137.772 153.575C137.819 153.598 137.854 153.61 137.877 153.61C137.9 153.61 137.924 153.621 137.947 153.645C138.32 153.785 138.752 154.006 139.242 154.31C139.755 154.59 140.234 154.916 140.677 155.29C141.144 155.64 141.529 156.001 141.832 156.375C142.159 156.725 142.345 157.028 142.392 157.285C142.415 157.565 142.38 158.241 142.287 159.315C142.194 160.365 142.089 161.648 141.972 163.165C141.855 164.681 141.762 166.338 141.692 168.135C141.622 169.931 141.622 171.681 141.692 173.385C142.112 172.521 142.59 171.53 143.127 170.41C143.664 169.29 144.2 168.123 144.737 166.91C145.297 165.673 145.834 164.425 146.347 163.165C146.884 161.905 147.35 160.703 147.747 159.56C148.167 158.393 148.494 157.343 148.727 156.41C148.984 155.453 149.112 154.66 149.112 154.03C149.112 153.61 149.275 153.435 149.602 153.505C149.952 153.575 150.337 153.785 150.757 154.135C151.177 154.461 151.55 154.893 151.877 155.43C152.227 155.943 152.402 156.445 152.402 156.935ZM170.103 158.51C170.08 158.72 170.01 159.081 169.893 159.595C169.776 160.085 169.625 160.656 169.438 161.31C169.251 161.963 169.041 162.663 168.808 163.41C168.598 164.133 168.4 164.845 168.213 165.545C168.026 166.221 167.863 166.851 167.723 167.435C167.606 167.995 167.548 168.426 167.548 168.73C167.548 168.94 167.396 169.045 167.093 169.045C166.813 169.045 166.498 168.928 166.148 168.695C165.821 168.461 165.518 168.1 165.238 167.61C164.981 167.12 164.876 166.49 164.923 165.72C164.946 165.206 165.063 164.635 165.273 164.005C165.483 163.351 165.728 162.71 166.008 162.08C166.288 161.426 166.568 160.796 166.848 160.19C167.151 159.583 167.385 159.046 167.548 158.58C167.735 158.113 167.828 157.74 167.828 157.46C167.828 157.18 167.688 157.04 167.408 157.04C166.591 157.04 165.705 157.401 164.748 158.125C163.815 158.848 162.87 159.793 161.913 160.96C160.956 162.126 160.035 163.468 159.148 164.985C158.285 166.478 157.515 168.018 156.838 169.605C156.185 171.168 155.66 172.708 155.263 174.225C154.89 175.718 154.726 177.048 154.773 178.215C154.843 179.381 155.158 180.326 155.718 181.05C156.278 181.773 157.165 182.135 158.378 182.135C159.451 182.135 160.501 181.936 161.528 181.54C162.555 181.143 163.511 180.641 164.398 180.035C165.308 179.405 166.136 178.716 166.883 177.97C167.653 177.223 168.306 176.511 168.843 175.835C169.403 175.135 169.835 174.516 170.138 173.98C170.441 173.42 170.593 173.023 170.593 172.79C170.593 172.626 170.651 172.556 170.768 172.58C170.908 172.603 171.048 172.685 171.188 172.825C171.328 172.965 171.456 173.151 171.573 173.385C171.69 173.595 171.748 173.816 171.748 174.05C171.725 174.493 171.526 175.053 171.153 175.73C170.78 176.406 170.278 177.13 169.648 177.9C169.018 178.67 168.271 179.451 167.408 180.245C166.568 181.015 165.646 181.715 164.643 182.345C163.663 182.951 162.636 183.453 161.563 183.85C160.49 184.246 159.405 184.445 158.308 184.445C155.858 184.445 153.956 184.013 152.603 183.15C151.273 182.286 150.363 181.143 149.873 179.72C149.383 178.296 149.278 176.675 149.558 174.855C149.838 173.035 150.375 171.18 151.168 169.29C151.985 167.4 153 165.545 154.213 163.725C155.45 161.905 156.768 160.283 158.168 158.86C159.568 157.436 161.015 156.293 162.508 155.43C164.001 154.566 165.413 154.135 166.743 154.135C168.003 154.135 168.89 154.496 169.403 155.22C169.94 155.943 170.173 157.04 170.103 158.51Z" fill="black"/>
<g id="Eyelashes">
<path id="Eyelash_Parts" d="M204.75 147.86L194.845 147.051L205.573 144.442L210.084 141.769L214.458 139.253L218.493 134.645L221.502 131.209L223.283 126.697L224.858 122.419L228.056 115.668L228.966 121.127L228.542 127.302L226.555 134.254L223.818 139.308L219.783 143.915L213.017 147.235L204.75 147.86Z" fill="black" stroke="black"/>
<path id="Eyelash_Parts_2" d="M128.423 114.666L122.963 118.625L127.951 111.968L129.63 108.098L131.277 104.397L132.19 99.4292L132.87 95.7243L132.614 91.8474L132.311 88.2231L131.277 82.1797L134.143 85.4749L135.56 89.8642L136.355 95.4938L136.249 100.175L135.336 105.142L132.614 110.554L128.423 114.666Z" fill="black" stroke="black"/>
<path id="Eyelash_Parts_3" d="M155.946 120.842L149.216 120.907L156.29 118.485L159.168 116.404L161.963 114.437L164.4 111.081L166.218 108.578L167.14 105.425L167.939 102.443L169.68 97.6917L170.63 101.318L170.725 105.508L169.813 110.32L168.279 113.897L165.842 117.254L161.483 119.91L155.946 120.842Z" fill="black" stroke="black"/>
<path id="Eyelash_Parts_4" d="M82.0696 133.207L77.5376 137.756L78.3107 130.932L78.6584 128.274L78.3107 125.404L78.3107 122.288L78.3107 118.648L78.3107 115.464L77.5376 109.549L76.3837 105.071L82.0696 109.549L83.452 112.279L84.5728 117.284L84.5728 120.923L84.5728 125.404L84.5728 128.274L82.0696 133.207Z" fill="black" stroke="black"/>
<path id="Eyelash_Parts_5" d="M105.918 120.053L101.184 124.083L102.701 117.904L104.066 114.719L104.887 111.85L104.887 108.35L104.791 105.165L104.887 101.981L103.718 99.6201L101.791 91.5169L107.477 95.6115L109.98 98.7961L111.345 103.346L111.8 106.985L111.345 111.85L109.302 116.1L105.918 120.053Z" fill="black" stroke="black"/>
<path id="Eyelash_Parts_6" d="M182.195 131.345L174.827 130.936L182.877 128.761L186.294 126.664L189.605 124.687L192.706 121.147L195.018 118.506L196.435 115.083L197.695 111.839L200.215 106.706L200.784 110.787L200.344 115.431L198.723 120.691L196.582 124.541L193.481 128.081L188.37 130.709L182.195 131.345Z" fill="black" stroke="black"/>
</g>
</g>
</svg>
