<svg width="892" height="892" viewBox="0 0 892 892" fill="none" xmlns="http://www.w3.org/2000/svg">
<path d="M466.755 643.514C583.782 643.514 678.652 547.002 678.652 427.948C678.652 308.893 583.782 212.381 466.755 212.381C349.727 212.381 254.857 308.893 254.857 427.948C254.857 547.002 349.727 643.514 466.755 643.514Z" fill="#72CFF1"/>
<path d="M297.054 471.061L320.904 448.128C320.904 448.128 345.927 426.374 359.43 416.94C372.934 407.506 389.458 396.369 407.13 391.255C424.802 386.141 443.136 379.33 462.219 379.33C473.406 379.33 494.95 379.721 512.62 384.834C526.44 388.833 544.065 397.417 557.568 406.85C571.069 416.282 587.019 429.131 605.267 440.79L634.622 471.061" stroke="black" stroke-width="4"/>
<path d="M298.888 471.061L320.903 456.383C320.903 456.383 345.921 437.36 359.43 427.948C372.939 418.534 383.029 411.953 400.709 406.85C418.388 401.747 426.566 396.759 445.656 396.759C456.847 396.759 451.106 396.759 469.506 396.759C482.349 396.759 505.282 397.677 519.04 402.263C532.8 406.85 528.215 404.098 573.161 427.948L634.622 469.731" stroke="black" stroke-width="4"/>
<path d="M293.385 468.733L313.34 494.24C313.34 494.24 335.61 513.208 349.26 521.087C362.91 528.967 376.628 536.952 394.492 541.223C412.356 545.494 441.055 549.95 460.345 549.95C471.652 549.95 500.353 549.523 518.217 545.25C532.185 541.911 557.116 533.665 570.764 525.785C584.414 517.908 603.987 504.488 611.342 494.24L634.623 467.391" stroke="black" stroke-width="4"/>
<path d="M440.793 482.91C441.487 483.455 441.908 484.076 442.057 484.768C442.206 485.462 442.206 486.157 442.057 486.849C441.859 488.09 441.289 489.205 440.347 490.194C439.406 491.137 438.588 491.732 437.894 491.978C437.052 494.803 436.309 497.456 435.664 499.932C435.02 502.41 434.549 504.641 434.252 506.622C434.153 507.068 434.079 507.614 434.029 508.257C434.029 508.903 434.079 509.349 434.178 509.595C434.277 510.041 433.93 510.487 433.137 510.933C432.344 511.379 431.229 511.602 429.792 511.602C429.297 511.602 428.677 511.528 427.934 511.379C427.19 511.182 426.472 510.836 425.778 510.339C425.134 509.795 424.614 509.075 424.217 508.183C423.821 507.242 423.746 506.004 423.994 504.466C424.044 503.972 424.217 503.228 424.514 502.236C424.861 501.196 425.258 499.983 425.704 498.594C426.199 497.158 426.769 495.572 427.413 493.837C428.058 492.104 428.751 490.245 429.495 488.262H428.305C426.769 488.313 425.084 488.41 423.251 488.559C421.417 488.708 419.509 488.907 417.527 489.154C415.099 492.078 412.646 494.854 410.168 497.479C407.69 500.106 405.262 502.41 402.883 504.392C400.554 506.376 398.324 507.96 396.193 509.149C394.013 510.29 392.056 510.859 390.321 510.859C388.636 510.859 387.249 510.687 386.158 510.339C385.068 509.993 384.201 509.572 383.557 509.075C382.913 508.58 382.491 508.085 382.293 507.588C382.045 507.045 381.946 506.599 381.996 506.25C382.045 505.904 382.194 505.707 382.442 505.656C382.64 505.558 382.913 505.558 383.259 505.656C383.557 505.707 383.904 505.804 384.3 505.953C384.697 506.053 385.143 506.102 385.638 506.102C387.224 506.102 388.934 505.707 390.767 504.912C392.551 504.12 394.409 503.031 396.342 501.642C398.275 500.206 400.257 498.545 402.289 496.661C404.37 494.729 406.451 492.647 408.533 490.417C406.6 490.666 404.791 490.914 403.106 491.161C401.471 491.36 400.108 491.458 399.018 491.458C397.581 491.458 396.466 491.212 395.673 490.715C394.831 490.22 394.211 489.651 393.815 489.005C393.369 488.313 393.096 487.644 392.997 486.998C392.898 486.306 392.898 485.809 392.997 485.511C393.096 484.719 393.22 484.273 393.369 484.173C393.517 484.025 393.84 484.025 394.335 484.173C394.781 484.322 395.524 484.522 396.565 484.768C397.606 485.016 399.068 485.14 400.951 485.14C402.735 485.091 404.816 484.893 407.195 484.545C409.623 484.199 412.175 483.802 414.851 483.356C417.824 479.839 420.699 476.245 423.474 472.577C426.298 468.912 428.875 465.467 431.204 462.245C433.583 458.974 435.664 456.101 437.448 453.622C439.282 451.095 440.719 449.213 441.76 447.973C441.76 447.727 441.785 447.552 441.834 447.453C441.983 446.561 442.528 446.24 443.469 446.486C444.461 446.735 445.501 447.281 446.591 448.122C447.731 448.965 448.722 449.957 449.565 451.095C450.457 452.187 450.828 453.127 450.68 453.92C450.63 454.317 450.283 455.406 449.639 457.19C449.044 458.974 448.276 461.204 447.335 463.88C446.393 466.507 445.353 469.481 444.213 472.8C443.073 476.071 441.933 479.441 440.793 482.91ZM432.022 480.977C433.261 477.558 434.475 474.064 435.664 470.496C436.854 466.879 437.944 463.36 438.935 459.941C437.052 462.816 434.772 466.185 432.096 470.05C429.42 473.866 426.521 477.832 423.399 481.943C424.985 481.697 426.497 481.497 427.934 481.349C429.42 481.151 430.783 481.028 432.022 480.977ZM508.438 453.697C508.438 454.64 508.115 456.052 507.471 457.934C506.877 459.769 506.082 461.899 505.093 464.326C504.101 466.756 502.96 469.406 501.673 472.28C500.433 475.156 499.146 478.078 497.808 481.051C496.519 484.025 495.23 486.975 493.943 489.897C492.654 492.773 491.513 495.472 490.523 497.999C489.58 500.527 488.814 502.782 488.219 504.764C487.624 506.696 487.327 508.208 487.327 509.298C487.573 509.744 487.302 510.241 486.509 510.785C485.715 511.33 484.6 511.602 483.164 511.602C482.667 511.602 481.998 511.505 481.157 511.305C480.363 511.107 479.545 510.761 478.704 510.264C477.91 509.721 477.167 508.977 476.474 508.034C475.78 507.093 475.334 505.879 475.136 504.392C475.037 503.7 475.011 502.534 475.062 500.898C475.111 499.263 475.185 497.307 475.285 495.026C475.434 492.698 475.582 490.145 475.731 487.37C475.929 484.545 476.077 481.623 476.177 478.598C476.326 475.527 476.423 472.405 476.474 469.232C476.572 466.013 476.598 462.891 476.549 459.866C475.606 462.542 474.442 465.664 473.055 469.232C471.717 472.751 470.179 476.394 468.446 480.159C466.712 483.927 464.853 487.644 462.871 491.309C460.889 494.928 458.808 498.174 456.627 501.047C454.447 503.923 452.217 506.25 449.937 508.034C447.707 509.769 445.452 510.636 443.173 510.636C441.488 510.636 440.051 510.464 438.861 510.116C437.623 509.769 436.631 509.349 435.888 508.852C435.095 508.357 434.501 507.862 434.104 507.365C433.708 506.822 433.485 506.376 433.435 506.027C433.386 505.681 433.46 505.484 433.658 505.433C433.856 505.384 434.129 505.409 434.476 505.507C434.773 505.558 435.145 505.656 435.591 505.804C436.037 505.904 436.508 505.953 437.003 505.953C439.134 505.953 441.265 505.261 443.396 503.872C445.527 502.436 447.608 500.552 449.64 498.222C451.672 495.844 453.654 493.119 455.586 490.046C457.519 486.924 459.353 483.704 461.087 480.382C462.822 477.063 464.457 473.718 465.993 470.347C467.529 466.979 468.916 463.831 470.156 460.907C471.394 457.985 472.484 455.383 473.427 453.102C474.368 450.823 475.136 449.113 475.731 447.973V447.378C475.582 446.486 476.126 446.214 477.366 446.561C477.464 446.612 477.538 446.635 477.589 446.635C477.638 446.635 477.687 446.66 477.738 446.709C478.53 447.007 479.448 447.478 480.488 448.122C481.578 448.716 482.593 449.411 483.536 450.203C484.526 450.946 485.343 451.715 485.989 452.507C486.681 453.251 487.079 453.896 487.178 454.44C487.227 455.035 487.153 456.472 486.955 458.751C486.756 460.981 486.533 463.708 486.286 466.928C486.038 470.15 485.84 473.669 485.692 477.483C485.543 481.3 485.543 485.016 485.692 488.633C486.584 486.8 487.599 484.694 488.739 482.315C489.878 479.936 491.018 477.46 492.159 474.882C493.348 472.257 494.486 469.604 495.578 466.928C496.716 464.252 497.708 461.701 498.551 459.272C499.443 456.795 500.136 454.565 500.633 452.582C501.176 450.551 501.45 448.865 501.45 447.527C501.45 446.635 501.797 446.263 502.491 446.412C503.234 446.561 504.052 447.007 504.944 447.75C505.836 448.444 506.628 449.362 507.323 450.5C508.066 451.592 508.438 452.656 508.438 453.697ZM546.031 457.042C545.983 457.488 545.834 458.256 545.585 459.346C545.337 460.387 545.016 461.601 544.619 462.988C544.222 464.377 543.776 465.864 543.281 467.448C542.835 468.986 542.415 470.496 542.017 471.983C541.62 473.42 541.274 474.758 540.977 475.997C540.728 477.186 540.605 478.103 540.605 478.747C540.605 479.193 540.282 479.416 539.639 479.416C539.044 479.416 538.375 479.17 537.632 478.673C536.937 478.178 536.294 477.409 535.699 476.368C535.153 475.328 534.93 473.99 535.03 472.354C535.079 471.265 535.327 470.05 535.773 468.712C536.219 467.325 536.74 465.962 537.334 464.624C537.929 463.237 538.524 461.899 539.118 460.61C539.762 459.323 540.259 458.182 540.605 457.19C541.002 456.201 541.2 455.406 541.2 454.812C541.2 454.217 540.902 453.92 540.308 453.92C538.573 453.92 536.691 454.688 534.658 456.224C532.677 457.762 530.67 459.769 528.637 462.245C526.605 464.723 524.649 467.574 522.765 470.793C520.932 473.966 519.297 477.237 517.859 480.605C516.472 483.927 515.357 487.198 514.514 490.417C513.722 493.59 513.374 496.415 513.473 498.891C513.622 501.37 514.291 503.377 515.48 504.912C516.67 506.45 518.553 507.217 521.13 507.217C523.409 507.217 525.639 506.796 527.82 505.953C530.001 505.112 532.031 504.046 533.915 502.757C535.848 501.419 537.606 499.957 539.193 498.371C540.828 496.787 542.215 495.274 543.355 493.837C544.545 492.35 545.462 491.037 546.106 489.897C546.749 488.708 547.072 487.867 547.072 487.37C547.072 487.023 547.195 486.875 547.444 486.924C547.741 486.975 548.038 487.147 548.336 487.444C548.633 487.741 548.905 488.138 549.153 488.633C549.402 489.079 549.525 489.551 549.525 490.046C549.476 490.989 549.054 492.178 548.261 493.614C547.469 495.051 546.403 496.587 545.065 498.222C543.727 499.858 542.141 501.519 540.308 503.203C538.524 504.838 536.566 506.325 534.435 507.663C532.354 508.952 530.173 510.018 527.894 510.859C525.615 511.702 523.311 512.123 520.981 512.123C515.778 512.123 511.738 511.207 508.865 509.372C506.04 507.539 504.107 505.112 503.067 502.088C502.026 499.065 501.803 495.621 502.398 491.755C502.992 487.89 504.133 483.95 505.817 479.936C507.552 475.922 509.708 471.983 512.284 468.117C514.911 464.252 517.71 460.809 520.684 457.785C523.657 454.763 526.73 452.335 529.901 450.5C533.072 448.667 536.071 447.75 538.895 447.75C541.571 447.75 543.455 448.519 544.545 450.054C545.685 451.592 546.18 453.92 546.031 457.042Z" fill="black"/>
<path d="M612.397 435.288L592.427 433.657L614.056 428.394L623.152 423.006L631.972 417.932L640.108 408.643L646.174 401.714L649.763 392.617L652.94 383.991L659.388 370.379L661.223 381.387L660.37 393.836L656.362 407.854L650.844 418.044L642.708 427.334L629.065 434.026L612.397 435.288Z" fill="black" stroke="black"/>
<path d="M458.501 368.359L447.491 376.341L457.548 362.919L460.933 355.117L464.256 347.654L466.095 337.638L467.468 330.167L466.95 322.351L466.339 315.043L464.256 302.858L470.033 309.502L472.89 318.352L474.493 329.703L474.279 339.14L472.439 349.157L466.95 360.067L458.501 368.359Z" fill="black" stroke="black"/>
<path d="M513.996 380.811L500.425 380.942L514.688 376.059L520.493 371.864L526.127 367.898L531.042 361.13L534.705 356.084L536.566 349.726L538.175 343.713L541.686 334.134L543.602 341.445L543.793 349.894L541.956 359.596L538.861 366.809L533.947 373.576L525.159 378.932L513.996 380.811Z" fill="black" stroke="black"/>
<path d="M365.043 405.742L355.906 414.915L357.464 401.156L358.166 395.796L357.464 390.01V383.727V376.389V369.968L355.906 358.043L353.579 349.013L365.043 358.043L367.831 363.546L370.091 373.637V380.975V390.01V395.796L365.043 405.742Z" fill="black" stroke="black"/>
<path d="M413.125 379.22L403.58 387.346L406.639 374.888L409.39 368.467L411.046 362.681V355.625L410.853 349.203L411.046 342.782L408.689 338.022L404.804 321.684L416.268 329.94L421.315 336.361L424.067 345.534L424.985 352.873L424.067 362.681L419.948 371.251L413.125 379.22Z" fill="black" stroke="black"/>
<path d="M566.92 401.987L552.063 401.163L568.296 396.779L575.183 392.55L581.861 388.564L588.113 381.426L592.775 376.102L595.633 369.2L598.174 362.66L603.254 352.31L604.401 360.538L603.515 369.902L600.246 380.507L595.927 388.269L589.676 395.407L579.371 400.706L566.92 401.987Z" fill="black" stroke="black"/>
</svg>
