<svg width="42" height="42" viewBox="0 0 42 42" fill="none" xmlns="http://www.w3.org/2000/svg">
<g clip-path="url(#clip0)">
<path d="M41.3247 20.9215C41.3247 9.36563 32.0751 0 20.6623 0C9.24963 0 0 9.36563 0 20.9215C0 31.3659 7.55467 40.0205 17.4338 41.5896V26.9691H12.1876V20.9215H17.4338V16.3122C17.4338 11.0696 20.5171 8.17245 25.2387 8.17245C27.4987 8.17245 29.8635 8.58107 29.8635 8.58107V13.7297H27.2565C24.6899 13.7297 23.8908 15.3438 23.8908 16.9987V20.9215H29.6214L28.7053 26.9691H23.8908V41.5896C33.77 40.0205 41.3247 31.3659 41.3247 20.9215Z" fill="black"/>
</g>
<defs>
<clipPath id="clip0">
<rect width="41.3247" height="41.8429" fill="white"/>
</clipPath>
</defs>
</svg>
