<svg width="42" height="42" viewBox="0 0 42 42" fill="none" xmlns="http://www.w3.org/2000/svg">
<path fill-rule="evenodd" clip-rule="evenodd" d="M21.3376 0C9.92614 0 0.675293 9.36686 0.675293 20.9215C0.675293 32.4761 9.92614 41.8429 21.3376 41.8429C32.7491 41.8429 42 32.4761 42 20.9215C42 9.36686 32.7491 0 21.3376 0ZM16.7947 9.83077C17.9702 9.77661 18.3458 9.76336 21.3387 9.76336H21.3352C24.329 9.76336 24.7032 9.77661 25.8787 9.83077C27.0519 9.88517 27.8531 10.0732 28.5556 10.3492C29.2811 10.6339 29.8941 11.0152 30.5071 11.6358C31.1201 12.2561 31.4966 12.8786 31.779 13.6125C32.0499 14.322 32.2359 15.1328 32.291 16.3207C32.3438 17.5109 32.3575 17.8912 32.3575 20.9216C32.3575 23.952 32.3438 24.3314 32.291 25.5216C32.2359 26.709 32.0499 27.5201 31.779 28.2298C31.4966 28.9634 31.1201 29.586 30.5071 30.2062C29.8948 30.8268 29.2809 31.209 28.5563 31.494C27.8552 31.7699 27.0535 31.958 25.8803 32.0124C24.7048 32.0666 24.3304 32.0798 21.3373 32.0798C18.3447 32.0798 17.9693 32.0666 16.7938 32.0124C15.6209 31.958 14.8198 31.7699 14.1187 31.494C13.3944 31.209 12.7795 30.8268 12.1672 30.2062C11.5545 29.586 11.178 28.9634 10.8963 28.2295C10.624 27.5201 10.4382 26.7092 10.3843 25.5213C10.331 24.3311 10.3177 23.952 10.3177 20.9216C10.3177 17.8912 10.3315 17.5107 10.3841 16.3204C10.4369 15.133 10.6228 14.322 10.896 13.6122C11.1784 12.8786 11.5549 12.2561 12.1679 11.6358C12.7805 11.0154 13.3953 10.6342 14.1201 10.3492C14.8208 10.0732 15.6216 9.88517 16.7947 9.83077Z" fill="black"/>
<path fill-rule="evenodd" clip-rule="evenodd" d="M20.35 11.7742C20.5419 11.7738 20.7484 11.7739 20.9713 11.774L21.3386 11.7742C24.2809 11.7742 24.6297 11.7848 25.7916 11.8383C26.866 11.8881 27.4492 12.0698 27.8376 12.2226C28.3519 12.4248 28.7186 12.6666 29.104 13.0571C29.4897 13.4477 29.7285 13.8196 29.9287 14.3403C30.0795 14.7332 30.2593 15.3236 30.3082 16.4116C30.361 17.5878 30.3725 17.9412 30.3725 20.919C30.3725 23.8969 30.361 24.2502 30.3082 25.4265C30.2591 26.5144 30.0795 27.1049 29.9287 27.4977C29.729 28.0185 29.4897 28.3892 29.104 28.7795C28.7183 29.1701 28.3521 29.4118 27.8376 29.6141C27.4496 29.7675 26.866 29.9488 25.7916 29.9986C24.6299 30.052 24.2809 30.0637 21.3386 30.0637C18.396 30.0637 18.0473 30.052 16.8856 29.9986C15.8111 29.9484 15.228 29.7666 14.8393 29.6138C14.325 29.4116 13.9577 29.1698 13.572 28.7793C13.1863 28.3888 12.9475 28.0178 12.7473 27.4968C12.5965 27.1039 12.4167 26.5135 12.3678 25.4256C12.315 24.2493 12.3044 23.8959 12.3044 20.9162C12.3044 17.9365 12.315 17.585 12.3678 16.4088C12.4169 15.3208 12.5965 14.7304 12.7473 14.3371C12.947 13.8163 13.1863 13.4444 13.572 13.0539C13.9577 12.6633 14.325 12.4216 14.8393 12.2189C15.2277 12.0654 15.8111 11.8841 16.8856 11.8341C17.9022 11.7876 18.2961 11.7737 20.35 11.7714V11.7742ZM27.221 13.6269C26.4909 13.6269 25.8986 14.2259 25.8986 14.9654C25.8986 15.7046 26.4909 16.3044 27.221 16.3044C27.951 16.3044 28.5434 15.7046 28.5434 14.9654C28.5434 14.2262 27.951 13.6264 27.221 13.6264V13.6269ZM15.6793 20.9216C15.6793 17.7571 18.2131 15.1915 21.3384 15.1914C24.4637 15.1914 26.9969 17.7571 26.9969 20.9216C26.9969 24.0861 24.4639 26.6506 21.3386 26.6506C18.2133 26.6506 15.6793 24.0861 15.6793 20.9216Z" fill="black"/>
<path d="M21.3386 17.2021C23.3672 17.2021 25.012 18.8673 25.012 20.9216C25.012 22.9756 23.3672 24.641 21.3386 24.641C19.3098 24.641 17.6653 22.9756 17.6653 20.9216C17.6653 18.8673 19.3098 17.2021 21.3386 17.2021Z" fill="white"/>
</svg>
