<svg width="43" height="42" viewBox="0 0 43 42" fill="none" xmlns="http://www.w3.org/2000/svg">
<path d="M21.4974 0C10.077 0 0.818115 9.3596 0.818115 20.9043C0.818115 29.7649 6.26452 37.3352 13.9576 40.3805C13.7703 38.7288 13.6172 36.1824 14.0256 34.3759C14.4001 32.7414 16.4425 23.984 16.4425 23.984C16.4425 23.984 15.8298 22.728 15.8298 20.8871C15.8298 17.9794 17.4977 15.8115 19.5742 15.8115C21.3442 15.8115 22.1952 17.1535 22.1952 18.7536C22.1952 20.543 21.0719 23.227 20.4762 25.7217C19.9826 27.8035 21.5145 29.5068 23.5398 29.5068C27.2162 29.5068 30.0415 25.5841 30.0415 19.9408C30.0415 14.9341 26.4843 11.4414 21.3953 11.4414C15.5064 11.4414 12.0513 15.8976 12.0513 20.5085C12.0513 22.2979 12.7321 24.2249 13.5831 25.2744C13.7533 25.4808 13.7703 25.6701 13.7193 25.8766C13.5661 26.5303 13.2087 27.9584 13.1406 28.2509C13.0555 28.6294 12.8342 28.7154 12.4428 28.5261C9.85574 27.3046 8.23884 23.5022 8.23884 20.4225C8.23884 13.8329 12.9704 7.77673 21.9059 7.77673C29.0713 7.77673 34.6539 12.9383 34.6539 19.8547C34.6539 27.0637 30.1606 32.8618 23.9313 32.8618C21.8378 32.8618 19.8635 31.7607 19.1997 30.4531C19.1997 30.4531 18.1615 34.4447 17.9062 35.4254C17.4467 37.2492 16.1872 39.5202 15.3362 40.9139C17.2765 41.516 19.3189 41.8429 21.4634 41.8429C32.8838 41.8429 42.1427 32.4833 42.1427 20.9387C42.1767 9.3596 32.9179 0 21.4974 0Z" fill="black"/>
</svg>
